<svg xmlns="http://www.w3.org/2000/svg" width="65" height="44" viewBox="0 0 65 44" fill="none"><g clip-path="url(#clip0_4726_469)"><path d="M36.9307 10.4748C38.0608 9.36363 38.7588 7.83128 38.7588 6.13852C38.7588 2.74779 35.9561 -0.00131226 32.4993 -0.00131226C30.3136 -0.00131226 28.3924 1.09937 27.2729 2.76344C26.9764 3.05687 2.06079 33.1796 1.82812 33.5252C0.69801 34.6363 0 36.1687 0 37.8614C0 41.2522 2.80268 44.0013 6.25949 44.0013C8.44525 44.0013 10.3664 42.9006 11.4859 41.2365C11.7824 40.9431 36.698 10.8203 36.9307 10.4748Z" fill="#1F6F5B"></path><path d="M51.3482 24.768C52.4809 23.6569 53.1803 22.1219 53.1803 20.4279C53.1803 17.0371 50.3776 14.288 46.9208 14.288C44.735 14.288 42.8125 15.3887 41.693 17.0554C41.3925 17.3501 28.3072 33.1718 28.0719 33.5213C26.9391 34.6324 26.2397 36.1674 26.2397 37.8615C26.2397 41.2522 29.0424 44.0013 32.4992 44.0013C34.685 44.0013 36.6075 42.9006 37.727 41.2339C38.0275 40.9392 51.1128 25.1162 51.3482 24.768Z" fill="#0F3D3E"></path><path d="M64.8342 7.5412C65.6231 4.23978 63.5341 0.93615 60.1683 0.162338C56.8026 -0.611474 53.4346 1.43756 52.6457 4.73898C51.8568 8.04039 53.9458 11.344 57.3115 12.1178C60.6773 12.8916 64.0453 10.8426 64.8342 7.5412Z" fill="#1F6F5B"></path><path d="M8.56991 11.8463C11.7829 10.5948 13.3531 7.0253 12.0771 3.87377C10.8011 0.722227 7.16211 -0.817981 3.94916 0.433614C0.736205 1.68521 -0.834017 5.25466 0.441968 8.4062C1.71795 11.5577 5.35696 13.0979 8.56991 11.8463Z" fill="#0F3D3E"></path></g><defs><clipPath id="clip0_4726_469"><rect width="65" height="44" fill="white"></rect></clipPath></defs></svg>